<svg xmlns="http://www.w3.org/2000/svg" viewBox="0 0 576 768" width="576" height="768"><defs><pattern id="sel" width="8" height="8" patternUnits="userSpaceOnUse"><rect width="8" height="8" fill="#F0F3F6"/><path d="M0 0H4V4H0Z M4 4H8V8H4Z" fill="#CBD5DD"/></pattern></defs><g><path fill="#C45A3D" fill-rule="nonzero" d="M 40,40 L 280,40 L 280,220 L 40,220 Z"/><path fill="#3D6B8C" fill-rule="nonzero" d="M 510,140 C 510,187.124 467.124,230 420,230 C 372.876,230 330,187.124 330,140 C 330,92.876 372.876,50 420,50 C 467.124,50 510,92.876 510,140 Z"/><path fill="#6B8C3D" fill-rule="nonzero" d="M 80,500 C 180,380 400,380 500,500 Z"/><path fill="#8C6B3D" fill-rule="nonzero" d="M 450,650 C 450,691.888 378.54,730 300,730 C 221.46,730 150,691.888 150,650 C 150,608.112 221.46,570 300,570 C 378.54,570 450,608.112 450,650 Z"/></g><g stroke="#29383E" stroke-width=".65" fill-rule="evenodd"><path d="M 40,40 L 280,40 L 280,220 L 40,220 Z" fill-rule="nonzero" fill="url(#sel)"/><path d="M 510,140 C 510,187.124 467.124,230 420,230 C 372.876,230 330,187.124 330,140 C 330,92.876 372.876,50 420,50 C 467.124,50 510,92.876 510,140 Z" fill-rule="nonzero" fill="white"/><path d="M 80,500 C 180,380 400,380 500,500 Z" fill-rule="nonzero" fill="white"/><path d="M 450,650 C 450,691.888 378.54,730 300,730 C 221.46,730 150,691.888 150,650 C 150,608.112 221.46,570 300,570 C 378.54,570 450,608.112 450,650 Z" fill-rule="nonzero" fill="white"/><path d="M 340,225 L 260,230 L 255,275 L 305,300 L 350,280 L 340,225 Z" fill="white"/></g><g></g><g font-family="sans-serif" text-anchor="middle" dominant-baseline="central" fill="#29383E"><text x="160.0" y="130.0" font-size="22.0">3</text><text x="420.0" y="140.0" font-size="22.0">1</text><text x="290.0" y="455.0" font-size="22.0">4</text><text x="300.0" y="650.0" font-size="22.0">2</text><text x="306.2109" y="261.7578" font-size="22.0">1</text></g></svg>